<?xml version="1.0" encoding="iso-8859-1"?>
<!DOCTYPE svg PUBLIC "-//W3C//DTD SVG 1.1 Basic//EN" "http://www.w3.org/Graphics/SVG/1.1/DTD/svg11-basic.dtd">
<svg version="1.1" baseProfile="basic" id="Layer_1"
   xmlns="http://www.w3.org/2000/svg" xmlns:xlink="http://www.w3.org/1999/xlink" x="0px" y="0px" width="1000px" height="1000px"
   viewBox="0 0 1000 1000" xml:space="preserve">
   <path transform="matrix(1.001001001001001,0,0,1.001001001001001,0,1)" style="fill:#d65714" d="M 509 561 C 508 558 463 524 463 524 C 463 524 430 501 432 470 C 432 470 431 436 466 405 C 503 372 568 327 572 220 C 567 103 491 53 482 46 C 484 46 559 46 559 46 L 639 0 C 639 0 384 0 383 0 C 256 0 198 35 159 69 C 125 104 80 157 82 243 C 82 318 135 448 286 448 C 296 448 302 448 326 446 C 317 466 314 478 313 496 C 313 529 325 552 350 584 C 277 591 184 595 114 644 C 0 717 12 804 12 803 C 20 995 286 991 285 990 C 499 988 606 865 606 742 C 606 676 581 615 509 561 z M 346 412 C 228 413 187 242 188 181 C 188 158 191 117 216 85 C 239 53 278 43 303 40 C 416 40 462 206 462 279 C 462 308 455 350 430 376 C 410 395 375 412 346 412 z M 345 935 C 131 931 126 790 126 777 C 125 675 232 642 232 642 C 232 642 326 617 365 620 C 407 626 528 699 529 795 C 526 800 544 928 345 935 z M 998 187 L 882 187 L 882 303 L 811 303 L 811 187 L 694 187 L 694 116 L 811 116 L 811 0 L 882 0 L 882 116 L 998 116 L 998 187 z"/>
</svg>