<?xml version="1.0" encoding="iso-8859-1"?>
<!DOCTYPE svg PUBLIC "-//W3C//DTD SVG 1.1 Basic//EN" "http://www.w3.org/Graphics/SVG/1.1/DTD/svg11-basic.dtd">
<svg version="1.1" baseProfile="basic" id="Layer_1"
   xmlns="http://www.w3.org/2000/svg" xmlns:xlink="http://www.w3.org/1999/xlink" x="0px" y="0px" width="1000px" height="1000px"
   viewBox="0 0 1000 1000" xml:space="preserve">
   <path transform="matrix(1.0060362173038229,0,0,1.0060362173038229,0,0)" style="fill:#d65714" d="M 488 469 C 420 488 341 499 241 505 C 242 554 258 601 286 642 C 345 563 413 510 494 482 C 492 477 490 473 488 469 z M 367 276 C 313 307 273 357 253 417 C 328 412 391 403 446 389 C 423 351 397 313 367 276 z M 355 709 C 418 752 499 764 573 741 C 561 678 546 621 528 568 C 459 593 404 638 355 709 z M 645 289 C 594 251 530 233 464 242 C 491 276 516 314 540 356 C 579 338 614 316 645 289 z M 579 437 C 582 444 586 452 589 460 C 635 454 685 454 749 459 C 744 420 729 384 707 352 C 670 387 627 415 579 437 z M 496 0 C 222 0 0 222 0 496 C 0 771 222 993 496 993 C 771 993 993 771 993 496 C 993 222 771 0 496 0 z M 496 829 C 313 829 164 680 164 496 C 164 313 313 163 496 163 C 680 163 829 313 829 496 C 829 680 680 829 496 829 z M 621 547 C 637 593 650 642 661 692 C 705 655 735 605 747 549 C 701 544 659 544 621 547 z"/>
</svg>